# xmcd
#
# Track frame offsets: 
#        150
#        23347
#        37532
#        56139
#        79183
#        101053
#        118660
#        122169
#        148901
#        165781
#
# Disc length: 2533 seconds
#
# Revision: 0
# Processed by: cddbd v1.5.2PL0 Copyright (c) Steve Scherf et al.
# Submitted via: ExactAudioCopy v0.95a4
#
DISCID=7609e30a
DTITLE=Marcus Motel and The Closers - Any Day With A Pulse
DYEAR=2014
DGENRE=Blues
TTITLE0=Everthing's Going To Be Allright
TTITLE1=Lonesome
TTITLE2=Long Gray Mare
TTITLE3=Too Many Drivers
TTITLE4=All Your Days
TTITLE5=Just Your Fool
TTITLE6=Band Introductions
TTITLE7=Pay Up
TTITLE8=Empty Arms
TTITLE9='Til The Money Runs Out
EXTD=
EXTT0=
EXTT1=
EXTT2=
EXTT3=
EXTT4=
EXTT5=
EXTT6=
EXTT7=
EXTT8=
EXTT9=
PLAYORDER=
